<svg width="720" height="480" viewBox="310 140 720 480" fill="none" xmlns="http://www.w3.org/2000/svg">
<path d="M647.118 614.929C520.222 614.929 417.353 511.746 417.353 384.464C417.353 257.182 520.222 154 647.118 154C774.013 154 876.882 257.182 876.882 384.464C876.882 511.746 774.013 614.929 647.118 614.929Z" fill="#A78BFA"/>
<path d="M851.353 410.071C865.452 410.071 876.882 398.607 876.882 384.464C876.882 370.322 865.452 358.857 851.353 358.857C837.253 358.857 825.824 370.322 825.824 384.464C825.824 398.607 837.253 410.071 851.353 410.071Z" fill="#1B255A"/>
<path d="M647.118 410.071C661.217 410.071 672.647 398.607 672.647 384.464C672.647 370.322 661.217 358.857 647.118 358.857C633.018 358.857 621.588 370.322 621.588 384.464C621.588 398.607 633.018 410.071 647.118 410.071Z" fill="#1B255A"/>
<path d="M749.235 563.714C706.937 563.714 672.647 529.32 672.647 486.893C672.647 444.466 706.937 410.071 749.235 410.071L902.412 410.071C944.71 410.071 979 444.466 979 486.893C979 529.32 944.71 563.714 902.412 563.714H749.235Z" fill="#F4A462"/>
<path d="M371.065 334V355.8H393.097H415.129H437.161H459.194H481.226H503.258V377.6H525.29V399.4H547.323V421.2H569.355V443H591.387H613.419H635.452H657.484H679.516H701.548V421.2H723.581V399.4H745.613V377.6H767.645H789.677V399.4H811.71V421.2H833.742H855.774H877.806H899.839H921.871H943.903H965.935V399.4H987.968V377.6H1010V355.8V334H987.968H965.935H943.903H921.871H899.839H877.806H855.774H833.742H811.71H789.677H767.645H745.613H723.581H701.548H679.516H657.484H635.452H613.419H591.387H569.355H547.323H525.29H503.258H481.226H459.194H437.161H415.129H393.097H371.065ZM371.065 355.8H349.032H327V377.6H349.032H371.065V355.8Z" fill="black" fill-opacity="0.3"/>
<path d="M551.839 355.882V377.763H574.323V355.882H551.839ZM574.323 377.763V399.645H596.807V377.763H574.323ZM596.807 377.763H619.29V355.882H596.807V377.763ZM619.29 377.763V399.645H641.774V377.763H619.29ZM641.774 399.645V421.526H664.258V399.645H641.774ZM619.29 399.645H596.807V421.526H619.29V399.645Z" fill="#BEE3F3"/>
<path d="M821.646 355.882H844.129V377.763H866.613V355.882H889.097V377.763H911.581V399.645H889.097V377.763H866.613V399.645H844.129V377.763H821.646V355.882Z" fill="#BEE3F3"/>
<rect x="328" y="357" width="22" height="22" fill="#131A3F"/>
<rect x="350" y="357" width="22" height="22" fill="#131A3F"/>
<rect x="372" y="334" width="22" height="22" fill="#131A3F"/>
<rect x="394" y="334" width="22" height="22" fill="#131A3F"/>
<rect x="416" y="334" width="22" height="22" fill="#131A3F"/>
<rect x="438" y="334" width="22" height="22" fill="#131A3F"/>
<rect x="460" y="334" width="22" height="22" fill="#131A3F"/>
<rect x="482" y="334" width="22" height="22" fill="#131A3F"/>
<rect x="504" y="334" width="22" height="22" fill="#131A3F"/>
<rect x="504" y="356" width="22" height="22" fill="#131A3F"/>
<rect x="526" y="378" width="22" height="22" fill="#131A3F"/>
<rect x="548" y="399" width="22" height="22" fill="#131A3F"/>
<rect x="570" y="421" width="22" height="22" fill="#131A3F"/>
<rect x="592" y="421" width="22" height="22" fill="#131A3F"/>
<rect x="614" y="421" width="22" height="22" fill="#131A3F"/>
<rect x="636" y="421" width="22" height="22" fill="#131A3F"/>
<rect x="658" y="421" width="22" height="22" fill="#131A3F"/>
<rect x="680" y="421" width="22" height="22" fill="#131A3F"/>
<rect x="702" y="399" width="22" height="22" fill="#131A3F"/>
<rect x="724" y="377" width="22" height="22" fill="#131A3F"/>
<rect x="768" y="355" width="22" height="22" fill="#131A3F"/>
<rect x="790" y="377" width="22" height="22" fill="#131A3F"/>
<rect x="812" y="399" width="22" height="22" fill="#131A3F"/>
<rect x="834" y="421" width="22" height="22" fill="#131A3F"/>
<rect x="856" y="421" width="22" height="22" fill="#131A3F"/>
<rect x="878" y="421" width="22" height="22" fill="#131A3F"/>
<rect x="900" y="421" width="22" height="22" fill="#131A3F"/>
<rect x="922" y="421" width="22" height="22" fill="#131A3F"/>
<rect x="944" y="421" width="22" height="22" fill="#131A3F"/>
<rect x="966" y="399" width="22" height="22" fill="#131A3F"/>
<rect x="988" y="377" width="22" height="22" fill="#131A3F"/>
<rect x="1010" y="355" width="22" height="22" fill="#131A3F"/>
<rect x="1010" y="333" width="22" height="22" fill="#131A3F"/>
<rect x="988" y="333" width="22" height="22" fill="#131A3F"/>
<rect x="966" y="333" width="22" height="22" fill="#131A3F"/>
<rect x="944" y="333" width="22" height="22" fill="#131A3F"/>
<rect x="922" y="333" width="22" height="22" fill="#131A3F"/>
<rect x="900" y="333" width="22" height="22" fill="#131A3F"/>
<rect x="878" y="333" width="22" height="22" fill="#131A3F"/>
<rect x="856" y="333" width="22" height="22" fill="#131A3F"/>
<rect x="834" y="333" width="22" height="22" fill="#131A3F"/>
<rect x="812" y="333" width="22" height="22" fill="#131A3F"/>
<rect x="790" y="333" width="22" height="22" fill="#131A3F"/>
<rect x="768" y="333" width="22" height="22" fill="#131A3F"/>
<rect x="746" y="333" width="22" height="22" fill="#131A3F"/>
<rect x="724" y="333" width="22" height="22" fill="#131A3F"/>
<rect x="702" y="333" width="22" height="22" fill="#131A3F"/>
<rect x="680" y="333" width="22" height="22" fill="#131A3F"/>
<rect x="658" y="333" width="22" height="22" fill="#131A3F"/>
<rect x="636" y="333" width="22" height="22" fill="#131A3F"/>
<rect x="614" y="333" width="22" height="22" fill="#131A3F"/>
<rect x="592" y="333" width="22" height="22" fill="#131A3F"/>
<rect x="570" y="333" width="22" height="22" fill="#131A3F"/>
<rect x="548" y="333" width="22" height="22" fill="#131A3F"/>
<rect x="526" y="333" width="22" height="22" fill="#131A3F"/>
<rect x="746" y="355" width="22" height="22" fill="#131A3F"/>
<rect x="749" y="411" width="230" height="144" rx="72" fill="#F4A462"/>
</svg>
